<svg width="32" height="32" viewBox="0 0 32 32" fill="none" xmlns="http://www.w3.org/2000/svg">
<path d="M32 5.99996V26H0V5.99996H10V3.99996C10 3.71871 10.0521 3.45829 10.1562 3.21871C10.2604 2.97913 10.401 2.77079 10.5781 2.59371C10.7552 2.41663 10.9688 2.27079 11.2188 2.15621C11.4688 2.04163 11.7292 1.98954 12 1.99996H20C20.2812 1.99996 20.5417 2.05204 20.7812 2.15621C21.0208 2.26038 21.2292 2.401 21.4062 2.57808C21.5833 2.75517 21.7292 2.96871 21.8438 3.21871C21.9583 3.46871 22.0104 3.72913 22 3.99996V5.99996H32ZM12 5.99996H20V3.99996H12V5.99996ZM2 7.99996V10.8906L12 15.875V14H20V15.875L30 10.8906V7.99996H2ZM14 16V18H18V16H14ZM30 24V13.1093L20 18.125V20H12V18.125L2 13.1093V24H30Z" fill="#999999"/>
</svg>
