<svg width="32" height="32" viewBox="0 0 32 32" fill="none" xmlns="http://www.w3.org/2000/svg">
<path d="M22.1729 18.5213L22.7809 17.9173L21.3689 16.4987L20.7635 17.1027L22.1729 18.5213ZM24.8195 17.664L27.3675 19.0493L28.3209 17.292L25.7742 15.908L24.8195 17.664ZM27.8569 21.8013L25.9636 23.6853L27.3729 25.1027L29.2662 23.22L27.8569 21.8013ZM24.8089 24.2907C22.8756 24.472 17.8755 24.3107 12.4595 18.9267L11.0489 20.344C16.9582 26.22 22.5835 26.508 24.9956 26.2827L24.8089 24.2907ZM12.4595 18.9267C7.29822 13.7933 6.44222 9.47732 6.33555 7.60399L4.33822 7.71732C4.47155 10.0747 5.53155 14.8587 11.0489 20.344L12.4595 18.9267ZM14.2929 10.6867L14.6755 10.3053L13.2675 8.88799L12.8849 9.26799L14.2929 10.6867ZM14.9795 5.45865L13.2995 3.21332L11.6982 4.41332L13.3782 6.65732L14.9795 5.45865ZM7.64488 2.72399L5.55155 4.80399L6.96222 6.22265L9.05422 4.14265L7.64488 2.72399ZM13.5889 9.97732C12.8822 9.26799 12.8822 9.26799 12.8822 9.27065H12.8795L12.8755 9.27599C12.8126 9.34024 12.7559 9.41033 12.7062 9.48532C12.6342 9.59199 12.5555 9.73199 12.4889 9.90932C12.3265 10.3671 12.2861 10.8592 12.3715 11.3373C12.5502 12.4907 13.3449 14.0147 15.3795 16.0387L16.7902 14.62C14.8849 12.7267 14.4316 11.5747 14.3475 11.0307C14.3075 10.772 14.3489 10.644 14.3609 10.6147C14.3675 10.596 14.3702 10.5947 14.3609 10.6067C14.3491 10.6251 14.3357 10.6425 14.3209 10.6587L14.3075 10.672C14.3032 10.6761 14.2988 10.6801 14.2942 10.684L13.5889 9.97732ZM15.3795 16.0387C17.4156 18.0627 18.9475 18.852 20.1022 19.028C20.6929 19.1187 21.1689 19.0467 21.5302 18.912C21.7323 18.8372 21.9213 18.731 22.0902 18.5973C22.1132 18.5781 22.1354 18.5581 22.1569 18.5373L22.1662 18.5293L22.1702 18.5253L22.1716 18.5227C22.1716 18.5227 22.1729 18.5213 21.4676 17.812C20.7609 17.1027 20.7649 17.1013 20.7649 17.1013L20.7675 17.0987L20.7702 17.096L20.7782 17.0893L20.7915 17.076C20.8076 17.0616 20.8245 17.0482 20.8422 17.036C20.8555 17.0267 20.8515 17.0307 20.8329 17.0387C20.7995 17.0507 20.6689 17.092 20.4062 17.052C19.8542 16.9667 18.6942 16.5133 16.7902 14.62L15.3795 16.0387ZM13.2995 3.21199C11.9395 1.39865 9.26755 1.11065 7.64488 2.72399L9.05422 4.14265C9.76355 3.43732 11.0222 3.51065 11.6982 4.41332L13.2995 3.21199ZM6.33688 7.60532C6.31022 7.14399 6.52222 6.66132 6.96222 6.22399L5.55022 4.80532C4.83422 5.51732 4.27022 6.52532 4.33822 7.71732L6.33688 7.60532ZM25.9636 23.6853C25.5982 24.0507 25.2036 24.256 24.8102 24.292L24.9956 26.2827C25.9755 26.1907 26.7769 25.6973 27.3742 25.104L25.9636 23.6853ZM14.6755 10.3053C15.9889 8.99999 16.0862 6.93732 14.9809 5.45999L13.3795 6.65865C13.9169 7.37732 13.8369 8.31999 13.2662 8.88932L14.6755 10.3053ZM27.3689 19.0507C28.4582 19.6427 28.6276 21.0373 27.8582 21.8027L29.2689 23.22C31.0555 21.4427 30.5049 18.4787 28.3222 17.2933L27.3689 19.0507ZM22.7809 17.9187C23.2929 17.4093 24.1169 17.284 24.8209 17.6653L25.7755 15.9093C24.3302 15.1227 22.5382 15.34 21.3702 16.5L22.7809 17.9187Z" fill="#999999"/>
</svg>
