<svg width="32" height="32" viewBox="0 0 32 32" fill="none" xmlns="http://www.w3.org/2000/svg">
<path d="M16.0003 2.57141C18.9555 2.57141 21.7898 3.74539 23.8795 5.83508C25.9692 7.92477 27.1431 10.759 27.1431 13.7143C27.1431 18.4228 23.8346 23.5543 17.3031 29.1634C16.94 29.4754 16.4769 29.6467 15.9981 29.6463C15.5194 29.6459 15.0566 29.4737 14.694 29.1611L14.262 28.7863C8.01971 23.3234 4.85742 18.3177 4.85742 13.7143C4.85742 10.759 6.0314 7.92477 8.12109 5.83508C10.2108 3.74539 13.045 2.57141 16.0003 2.57141ZM16.0003 4.2857C13.4997 4.2857 11.1015 5.27906 9.33327 7.04726C7.56507 8.81546 6.57171 11.2137 6.57171 13.7143C6.57171 17.7166 9.48371 22.328 15.3877 27.4937L15.814 27.8628C15.8658 27.9074 15.9319 27.9319 16.0003 27.9319C16.0686 27.9319 16.1347 27.9074 16.1866 27.8628C22.3763 22.5463 25.4289 17.8114 25.4289 13.7143C25.4289 12.4761 25.185 11.25 24.7111 10.1061C24.2373 8.96218 23.5428 7.92279 22.6673 7.04726C21.7918 6.17174 20.7524 5.47723 19.6084 5.0034C18.4645 4.52957 17.2385 4.2857 16.0003 4.2857ZM16.0003 9.42855C17.1369 9.42855 18.227 9.88008 19.0307 10.6838C19.8345 11.4875 20.286 12.5776 20.286 13.7143C20.286 14.8509 19.8345 15.941 19.0307 16.7447C18.227 17.5485 17.1369 18 16.0003 18C14.8636 18 13.7735 17.5485 12.9698 16.7447C12.1661 15.941 11.7146 14.8509 11.7146 13.7143C11.7146 12.5776 12.1661 11.4875 12.9698 10.6838C13.7735 9.88008 14.8636 9.42855 16.0003 9.42855ZM16.0003 11.1428C15.3183 11.1428 14.6642 11.4138 14.182 11.896C13.6998 12.3782 13.4289 13.0323 13.4289 13.7143C13.4289 14.3963 13.6998 15.0503 14.182 15.5325C14.6642 16.0148 15.3183 16.2857 16.0003 16.2857C16.6823 16.2857 17.3363 16.0148 17.8186 15.5325C18.3008 15.0503 18.5717 14.3963 18.5717 13.7143C18.5717 13.0323 18.3008 12.3782 17.8186 11.896C17.3363 11.4138 16.6823 11.1428 16.0003 11.1428Z" fill="#999999"/>
</svg>
