<svg width="33" height="32" viewBox="0 0 33 32" fill="none" xmlns="http://www.w3.org/2000/svg">
<path opacity="0.2" d="M26.4004 11H19.4004V4L26.4004 11Z" fill="#666666"/>
<path d="M28.4004 19C28.4004 19.2652 28.295 19.5196 28.1075 19.7071C27.92 19.8946 27.6656 20 27.4004 20H24.4004V22H26.4004C26.6656 22 26.92 22.1054 27.1075 22.2929C27.295 22.4804 27.4004 22.7348 27.4004 23C27.4004 23.2652 27.295 23.5196 27.1075 23.7071C26.92 23.8946 26.6656 24 26.4004 24H24.4004V26C24.4004 26.2652 24.295 26.5196 24.1075 26.7071C23.92 26.8946 23.6656 27 23.4004 27C23.1352 27 22.8808 26.8946 22.6933 26.7071C22.5057 26.5196 22.4004 26.2652 22.4004 26V19C22.4004 18.7348 22.5057 18.4804 22.6933 18.2929C22.8808 18.1054 23.1352 18 23.4004 18H27.4004C27.6656 18 27.92 18.1054 28.1075 18.2929C28.295 18.4804 28.4004 18.7348 28.4004 19ZM11.9004 21.5C11.9004 22.4283 11.5316 23.3185 10.8753 23.9749C10.2189 24.6313 9.32865 25 8.40039 25H7.40039V26C7.40039 26.2652 7.29503 26.5196 7.1075 26.7071C6.91996 26.8946 6.66561 27 6.40039 27C6.13517 27 5.88082 26.8946 5.69328 26.7071C5.50575 26.5196 5.40039 26.2652 5.40039 26V19C5.40039 18.7348 5.50575 18.4804 5.69328 18.2929C5.88082 18.1054 6.13517 18 6.40039 18H8.40039C9.32865 18 10.2189 18.3687 10.8753 19.0251C11.5316 19.6815 11.9004 20.5717 11.9004 21.5ZM9.90039 21.5C9.90039 21.1022 9.74236 20.7206 9.46105 20.4393C9.17975 20.158 8.79822 20 8.40039 20H7.40039V23H8.40039C8.79822 23 9.17975 22.842 9.46105 22.5607C9.74236 22.2794 9.90039 21.8978 9.90039 21.5ZM20.9004 22.5C20.9004 23.6935 20.4263 24.8381 19.5824 25.682C18.7385 26.5259 17.5939 27 16.4004 27H14.4004C14.1352 27 13.8808 26.8946 13.6933 26.7071C13.5057 26.5196 13.4004 26.2652 13.4004 26V19C13.4004 18.7348 13.5057 18.4804 13.6933 18.2929C13.8808 18.1054 14.1352 18 14.4004 18H16.4004C17.5939 18 18.7385 18.4741 19.5824 19.318C20.4263 20.1619 20.9004 21.3065 20.9004 22.5ZM18.9004 22.5C18.9004 21.837 18.637 21.2011 18.1682 20.7322C17.6993 20.2634 17.0634 20 16.4004 20H15.4004V25H16.4004C17.0634 25 17.6993 24.7366 18.1682 24.2678C18.637 23.7989 18.9004 23.163 18.9004 22.5ZM5.40039 14V5C5.40039 4.46957 5.6111 3.96086 5.98618 3.58579C6.36125 3.21071 6.86996 3 7.40039 3H19.4004C19.5318 2.9999 19.6618 3.02568 19.7832 3.07586C19.9046 3.12605 20.015 3.19967 20.1079 3.2925L27.1079 10.2925C27.2007 10.3854 27.2743 10.4958 27.3245 10.6172C27.3747 10.7385 27.4005 10.8686 27.4004 11V14C27.4004 14.2652 27.295 14.5196 27.1075 14.7071C26.92 14.8946 26.6656 15 26.4004 15C26.1352 15 25.8808 14.8946 25.6933 14.7071C25.5057 14.5196 25.4004 14.2652 25.4004 14V12H19.4004C19.1352 12 18.8808 11.8946 18.6933 11.7071C18.5057 11.5196 18.4004 11.2652 18.4004 11V5H7.40039V14C7.40039 14.2652 7.29503 14.5196 7.1075 14.7071C6.91996 14.8946 6.66561 15 6.40039 15C6.13517 15 5.88082 14.8946 5.69328 14.7071C5.50575 14.5196 5.40039 14.2652 5.40039 14ZM20.4004 10H23.9866L20.4004 6.41375V10Z" fill="#666666"/>
</svg>
