<svg width="21" height="21" viewBox="0 0 21 21" fill="none" xmlns="http://www.w3.org/2000/svg">
<path d="M15.6134 15.9541H13.3925V12.4733C13.3925 11.6433 13.3759 10.575 12.2342 10.575C11.0767 10.575 10.9 11.4783 10.9 12.4125V15.9541H8.67837V8.79663H10.8117V9.77163H10.8409C11.1392 9.20996 11.8642 8.6158 12.9475 8.6158C15.1975 8.6158 15.6142 10.0975 15.6142 12.0258L15.6134 15.9541ZM6.17004 7.81746C6.0005 7.81768 5.83259 7.78444 5.67593 7.71964C5.51926 7.65483 5.37693 7.55975 5.25709 7.43983C5.13725 7.31991 5.04225 7.17751 4.97755 7.02081C4.91285 6.8641 4.87971 6.69617 4.88004 6.52663C4.88021 6.27149 4.95602 6.02213 5.09791 5.81009C5.23979 5.59804 5.44137 5.43283 5.67715 5.33534C5.91293 5.23786 6.17232 5.21248 6.42252 5.26241C6.67273 5.31235 6.9025 5.43536 7.0828 5.61589C7.26309 5.79641 7.3858 6.02635 7.43542 6.27662C7.48503 6.52688 7.45932 6.78624 7.36153 7.0219C7.26374 7.25755 7.09826 7.45891 6.88603 7.60052C6.6738 7.74213 6.42435 7.81763 6.16921 7.81746M7.28254 15.9541H5.05587V8.79663H7.28337L7.28254 15.9541ZM16.725 3.17163H3.94171C3.32837 3.17163 2.83337 3.65496 2.83337 4.25246V17.0908C2.83337 17.6883 3.32837 18.1716 3.94004 18.1716H16.7225C17.3334 18.1716 17.8334 17.6883 17.8334 17.0908V4.25246C17.8334 3.6558 17.3334 3.17163 16.7217 3.17163H16.725Z" fill="#666666"/>
</svg>
